<svg width="18" height="18" viewBox="0 0 18 18" fill="none" xmlns="http://www.w3.org/2000/svg">
<path d="M8.42321 2.37949C8.45465 2.32238 8.50085 2.27476 8.55698 2.24159C8.6131 2.20842 8.67711 2.19092 8.7423 2.19092C8.8075 2.19092 8.8715 2.20842 8.92763 2.24159C8.98375 2.27476 9.02995 2.32238 9.0614 2.37949L11.212 6.46215C11.2633 6.55668 11.3349 6.63869 11.4216 6.70228C11.5083 6.76587 11.6081 6.80947 11.7137 6.82995C11.8192 6.85042 11.9281 6.84727 12.0323 6.82071C12.1365 6.79415 12.2335 6.74484 12.3164 6.67633L15.4323 4.00702C15.4922 3.95837 15.5659 3.92995 15.6429 3.92586C15.7199 3.92177 15.7962 3.94221 15.8608 3.98425C15.9254 4.02628 15.9751 4.08774 16.0025 4.15978C16.03 4.23182 16.0339 4.31072 16.0137 4.38512L13.9491 11.8496C13.9069 12.0023 13.8161 12.1372 13.6904 12.2337C13.5648 12.3302 13.411 12.3831 13.2526 12.3843H4.23273C4.07416 12.3832 3.92028 12.3304 3.79445 12.2339C3.66862 12.1374 3.57771 12.0025 3.53553 11.8496L1.47162 4.38585C1.45141 4.31145 1.45532 4.23255 1.4828 4.16051C1.51028 4.08847 1.55991 4.02701 1.62454 3.98498C1.68917 3.94294 1.76548 3.9225 1.84247 3.92659C1.91946 3.93068 1.99317 3.9591 2.05299 4.00775L5.16816 6.67706C5.25106 6.74557 5.34811 6.79488 5.45233 6.82144C5.55655 6.848 5.66536 6.85115 5.77094 6.83068C5.87652 6.8102 5.97626 6.7666 6.063 6.70301C6.14974 6.63942 6.22132 6.55741 6.2726 6.46288L8.42321 2.37949Z" stroke="#F0B100" stroke-width="1.45705" stroke-linecap="round" stroke-linejoin="round"/>
<path d="M3.64262 15.2988H13.842" stroke="#F0B100" stroke-width="1.45705" stroke-linecap="round" stroke-linejoin="round"/>
</svg>
