<svg width="80" height="80" viewBox="0 0 80 80" fill="none" xmlns="http://www.w3.org/2000/svg">
<path d="M67.6667 79.9988C46.875 79.9988 26.1042 79.9988 5.3125 79.9988C4.4375 79.6238 3.52083 79.353 2.70833 78.8738C1.16667 77.9155 0.4375 76.3738 0 74.6863C0 59.1655 0 43.6447 0 28.1238C0.0416667 27.9988 0.104167 27.8947 0.145833 27.7697C0.9375 24.6447 3.22917 22.7905 6.45833 22.7905C26.4792 22.7905 46.5 22.7697 66.5208 22.7905C70.3542 22.7905 72.9792 25.4572 72.9792 29.2905C72.9792 32.5197 72.9792 35.7488 72.9792 38.978C72.9792 39.2072 72.9583 39.4363 72.9375 39.7072C72.6042 39.7072 72.3125 39.7072 72.0417 39.7072C68.6875 39.7072 65.3333 39.6863 61.9583 39.7072C54.4583 39.7905 48.9792 46.6863 50.6042 53.9988C51.7708 59.228 56.375 63.0405 61.7292 63.1238C65.1667 63.1863 68.6042 63.1447 72.0417 63.1447C72.3125 63.1447 72.6042 63.1447 72.875 63.1447C72.9167 63.2905 72.9583 63.3738 72.9583 63.4363C72.9583 66.9988 73.0417 70.5613 72.9167 74.1238C72.8333 76.5197 71.5625 78.2905 69.3958 79.353C68.8542 79.6447 68.2292 79.7905 67.6667 79.9988Z" fill="#02812F"/>
<path d="M79.9999 56.7089C79.4166 58.0423 78.3958 58.5006 76.9583 58.4798C71.9166 58.4173 66.8541 58.5006 61.8124 58.4381C57.9583 58.3964 54.9583 55.1881 54.9999 51.3339C55.0416 47.5631 58.0833 44.4798 61.9374 44.4173C67.1458 44.3548 72.3541 44.3964 77.5624 44.3964C78.8124 44.3964 79.5624 45.1256 79.9999 46.2297C79.9999 49.7298 79.9999 53.2298 79.9999 56.7089ZM61.9999 53.7714C63.2916 53.7923 64.3541 52.7714 64.3749 51.5006C64.3958 50.2089 63.3124 49.1048 62.0208 49.1048C60.7708 49.1048 59.6874 50.1881 59.6874 51.4381C59.6874 52.7089 60.7083 53.7506 61.9999 53.7714Z" fill="#02812F"/>
<path d="M32.625 18.0834C32.3333 18.0834 32.0625 18.0834 31.8125 18.0834C25.0208 18.0834 18.2291 18.0834 11.4375 18.1043C10.8125 18.1043 10.5 17.9584 10.3125 17.3334C9.97913 16.2709 9.54163 15.2293 9.18746 14.1876C8.5833 12.3959 9.3333 10.7501 11.125 10.1043C20.1458 6.81259 29.1875 3.52093 38.2083 0.22926C40.0416 -0.437407 41.6666 0.333426 42.375 2.14593C42.6458 2.83343 42.875 3.54176 43.1666 4.35426C42.0833 4.35426 41.125 4.33343 40.1666 4.35426C36.0625 4.47926 32.75 7.83343 32.6458 11.9376C32.6041 13.7084 32.6458 15.4793 32.625 17.2501C32.6458 17.5001 32.625 17.7709 32.625 18.0834Z" fill="#02812F"/>
<path d="M64.6876 18.043C55.5626 18.043 46.5001 18.043 37.4167 18.043C37.3959 17.8971 37.3542 17.7721 37.3542 17.668C37.3542 15.8138 37.3334 13.9805 37.3542 12.1263C37.3751 10.418 38.6459 9.0638 40.3542 9.04297C47.4584 9.02214 54.5626 9.02214 61.6876 9.04297C63.3126 9.04297 64.6459 10.3346 64.6876 11.9388C64.7292 13.9596 64.6876 15.9596 64.6876 18.043Z" fill="#02812F"/>
</svg>
