<svg width="92" height="80" viewBox="0 0 92 80" fill="none" xmlns="http://www.w3.org/2000/svg">
<g clip-path="url(#clip0_driver_pickup_success)">
<path d="M0 37.4483C0.224573 35.8723 0.374288 34.2213 0.673718 32.6453C2.84459 21.6134 8.60862 12.983 17.891 6.67909C25.0024 1.87608 32.8625 -0.300275 41.3963 -8.72854e-05C50.7535 0.375147 59.0627 3.67721 66.1741 9.83106C66.3238 9.98115 66.5484 10.1312 66.773 10.3564C64.3775 12.0074 62.057 13.5084 59.7364 15.1594C52.026 9.23068 43.3426 6.97927 33.6859 8.85545C26.275 10.2813 20.1367 14.1087 15.3458 20.0374C5.68918 31.8948 5.98861 48.9305 15.8698 60.5628C25.8259 72.195 42.594 75.0468 55.6941 67.5421C68.869 59.8873 76.3548 41.3508 68.1204 25.4408C70.2164 23.6397 72.2376 21.8386 74.4085 20.0374C75.8308 22.4389 76.9536 24.9155 77.7771 27.4671C84.5891 48.7804 73.1359 71.2945 51.8015 78.1237C32.9373 84.2025 11.9024 74.8217 3.66802 56.7354C1.72172 52.4577 0.524003 47.9549 0.149715 43.2269C0.149715 43.0018 0.0748576 42.7016 0 42.4765C0 40.8254 0 39.0993 0 37.4483Z" fill="#258F00"/>
<path d="M41.3213 38.123C41.7705 37.5226 42.1447 36.9222 42.5939 36.3969C48.2831 28.4419 54.8705 21.3124 62.8055 15.5338C69.9169 10.3556 77.6273 6.6783 86.3107 5.10231C87.733 4.87717 89.1553 4.65203 90.5776 4.50194C91.2513 4.42689 91.7753 4.57698 91.9999 5.25241C92.2245 5.92783 91.7753 6.37811 91.1765 6.6783C79.349 12.607 69.1683 20.637 60.3351 30.3181C52.55 38.8734 46.4116 48.4794 42.2196 59.3612V59.4363C41.8453 59.8115 41.471 60.3368 41.0219 60.4869C40.3482 60.7121 40.0487 60.0366 39.8242 59.5113C38.7762 57.2599 37.803 55.0085 36.6801 52.8321C34.3596 48.4794 31.8144 44.2768 28.2961 40.7496C26.7241 39.1736 25.0024 37.8228 23.2058 36.547C19.7623 34.1455 19.7623 29.7927 23.3555 27.5413C25.9755 25.8903 28.7452 25.6652 31.515 27.3162C34.5841 29.1924 36.9047 31.8941 39.0007 34.6708C39.7493 35.7965 40.4979 36.9222 41.3213 38.123Z" fill="#258F00"/>
</g>
<defs>
<clipPath id="clip0_driver_pickup_success">
<rect width="92" height="80" fill="white"/>
</clipPath>
</defs>
</svg>
