<svg width="18" height="18" viewBox="0 0 18 18" fill="none" xmlns="http://www.w3.org/2000/svg">
<path d="M14.5705 5.82812H2.91407C2.51172 5.82812 2.18555 6.1543 2.18555 6.55665V8.0137C2.18555 8.41605 2.51172 8.74222 2.91407 8.74222H14.5705C14.9728 8.74222 15.299 8.41605 15.299 8.0137V6.55665C15.299 6.1543 14.9728 5.82812 14.5705 5.82812Z" stroke="#030213" stroke-width="1.45705" stroke-linecap="round" stroke-linejoin="round"/>
<path d="M8.74225 5.82812V15.2989" stroke="#030213" stroke-width="1.45705" stroke-linecap="round" stroke-linejoin="round"/>
<path d="M13.842 8.74219V13.8419C13.842 14.2283 13.6885 14.5989 13.4152 14.8722C13.142 15.1454 12.7714 15.2989 12.3849 15.2989H5.09969C4.71326 15.2989 4.34265 15.1454 4.0694 14.8722C3.79615 14.5989 3.64264 14.2283 3.64264 13.8419V8.74219" stroke="#030213" stroke-width="1.45705" stroke-linecap="round" stroke-linejoin="round"/>
<path d="M5.46395 5.828C4.98091 5.828 4.51765 5.63611 4.17609 5.29455C3.83453 4.95299 3.64264 4.48973 3.64264 4.00669C3.64264 3.52365 3.83453 3.06039 4.17609 2.71883C4.51765 2.37726 4.98091 2.18538 5.46395 2.18538C6.16675 2.17313 6.85545 2.51413 7.44025 3.1639C8.02504 3.81368 8.47879 4.74207 8.74231 5.828C9.00584 4.74207 9.45958 3.81368 10.0444 3.1639C10.6292 2.51413 11.3179 2.17313 12.0207 2.18538C12.5037 2.18538 12.967 2.37726 13.3085 2.71883C13.6501 3.06039 13.842 3.52365 13.842 4.00669C13.842 4.48973 13.6501 4.95299 13.3085 5.29455C12.967 5.63611 12.5037 5.828 12.0207 5.828" stroke="#030213" stroke-width="1.45705" stroke-linecap="round" stroke-linejoin="round"/>
</svg>
