<svg width="34" height="24" viewBox="0 0 34 24" fill="none" xmlns="http://www.w3.org/2000/svg">
<rect x="0.5" y="0.5" width="33" height="23" rx="3.5" fill="#F9FAFC"/>
<rect x="0.5" y="0.5" width="33" height="23" rx="3.5" stroke="#EAEAEA"/>
<path d="M26.7114 14.1303H26.729L28.146 10.5717H29.1431L26.0796 17.7065H25.1343L26.2729 15.2104L24.2632 10.5717H25.2593L26.7114 14.1303ZM21.9175 10.4106C22.5949 10.4106 23.1301 10.5955 23.5229 10.9594C23.9156 11.3232 24.1088 11.8312 24.1089 12.4721V15.5287H23.2329V14.8412H23.1929C22.8114 15.4073 22.3101 15.6898 21.6782 15.6899C21.143 15.6899 20.6873 15.528 20.3286 15.2045C19.9757 14.9041 19.7762 14.4595 19.7876 13.9916C19.7877 13.4776 19.9813 13.0732 20.3628 12.767C20.7442 12.461 21.2565 12.311 21.894 12.311C22.4405 12.311 22.8848 12.4145 23.2378 12.6108V12.3979C23.2378 12.0804 23.1017 11.7797 22.8628 11.5717C22.618 11.3522 22.3045 11.2309 21.98 11.2309C21.4675 11.2309 21.0632 11.4501 20.7671 11.8891L19.9585 11.3744C20.3912 10.7335 21.0465 10.4106 21.9175 10.4106ZM17.5728 8.2846C18.1592 8.27312 18.7284 8.49861 19.144 8.91448C19.9751 9.70012 20.0265 11.0224 19.2466 11.8715L19.144 11.976C18.7171 12.386 18.1932 12.5941 17.5728 12.5942H16.0581V15.5287H15.1411V8.2846H17.5728ZM22.0366 13.0619C21.6666 13.062 21.3535 13.1544 21.103 13.3334C20.8582 13.5125 20.7329 13.7377 20.7329 14.0092C20.7329 14.2518 20.8468 14.477 21.0347 14.6157C21.2397 14.7774 21.4903 14.8646 21.7466 14.8588C22.1337 14.8588 22.5035 14.7023 22.7769 14.4252C23.0787 14.1364 23.2329 13.7955 23.2329 13.4028C22.9482 13.1717 22.5492 13.0562 22.0366 13.0619ZM16.0581 11.7045H17.5952C17.9369 11.7161 18.268 11.5769 18.5015 11.3285C18.9796 10.8259 18.9676 10.0168 18.4722 9.53167C18.2387 9.30087 17.9253 9.17425 17.5952 9.17425H16.0581V11.7045Z" fill="#3C4043"/>
<path d="M12.893 11.9577C12.893 11.6746 12.8702 11.3915 12.8247 11.1143H8.95837V12.7145H11.1734C11.0823 13.2286 10.7862 13.6907 10.3534 13.9796V15.0194H11.6745C12.4488 14.2973 12.893 13.2286 12.893 11.9577Z" fill="#4285F4"/>
<path d="M8.95854 16.0252C10.0632 16.0252 10.997 15.6555 11.6746 15.0201L10.3536 13.9802C9.98347 14.2344 9.51086 14.3788 8.95854 14.3788C7.88805 14.3788 6.98269 13.6452 6.65813 12.6631H5.29724V13.7376C5.99192 15.1414 7.40975 16.0252 8.95854 16.0252Z" fill="#34A853"/>
<path d="M6.65822 12.6631C6.48737 12.149 6.48737 11.5886 6.65822 11.0687V10H5.29712C4.71053 11.1727 4.71053 12.5592 5.29712 13.7319L6.65822 12.6631Z" fill="#FBBC04"/>
<path d="M8.95854 9.35271C9.54503 9.34116 10.1087 9.56646 10.5301 9.97662L11.7031 8.78658C10.9572 8.0818 9.97778 7.69475 8.95854 7.70631C7.40975 7.70631 5.99192 8.59594 5.29724 9.99972L6.65813 11.0742C6.98269 10.0864 7.88805 9.35271 8.95854 9.35271Z" fill="#EA4335"/>
</svg>
