<svg width="14" height="14" viewBox="0 0 14 14" fill="none" xmlns="http://www.w3.org/2000/svg">
<g clip-path="url(#clip0_1_6869)">
<path d="M11.071 6.40967H2.91341C2.2698 6.40967 1.74805 6.93142 1.74805 7.57503V11.6538C1.74805 12.2974 2.2698 12.8192 2.91341 12.8192H11.071C11.7146 12.8192 12.2363 12.2974 12.2363 11.6538V7.57503C12.2363 6.93142 11.7146 6.40967 11.071 6.40967Z" stroke="#717182" stroke-width="1.16537" stroke-linecap="round" stroke-linejoin="round"/>
<path d="M4.0791 6.40967V4.07894C4.0791 3.30626 4.38605 2.56522 4.93242 2.01885C5.47879 1.47248 6.21983 1.16553 6.99252 1.16553C7.7652 1.16553 8.50624 1.47248 9.05261 2.01885C9.59898 2.56522 9.90593 3.30626 9.90593 4.07894V6.40967" stroke="#717182" stroke-width="1.16537" stroke-linecap="round" stroke-linejoin="round"/>
</g>
<defs>
<clipPath id="clip0_1_6869">
<rect width="13.9844" height="13.9844" fill="white"/>
</clipPath>
</defs>
</svg>
