<svg width="34" height="24" viewBox="0 0 34 24" fill="none" xmlns="http://www.w3.org/2000/svg">
<rect x="0.5" y="0.5" width="33" height="23" rx="3.5" fill="#F9FAFC"/>
<rect x="0.5" y="0.5" width="33" height="23" rx="3.5" stroke="#EAEAEA"/>
<path fill-rule="evenodd" clip-rule="evenodd" d="M14.6143 18.4483L14.835 16.9992L14.3433 16.9873H11.9954L13.6271 6.2937C13.6322 6.26132 13.6486 6.23126 13.6726 6.20987C13.6967 6.18849 13.7275 6.17676 13.7596 6.17676H17.7186C19.033 6.17676 19.94 6.45939 20.4135 7.01734C20.6356 7.27908 20.7769 7.55267 20.8454 7.85364C20.9172 8.16951 20.9183 8.54685 20.8484 9.00715L20.8433 9.04063V9.33561L21.0653 9.46563C21.2522 9.56815 21.4008 9.68546 21.5148 9.81975C21.7047 10.0436 21.8275 10.3281 21.8794 10.6652C21.9331 11.012 21.9153 11.4248 21.8275 11.892C21.7262 12.4295 21.5624 12.8976 21.3412 13.2805C21.1379 13.6334 20.8787 13.9262 20.571 14.153C20.2772 14.3686 19.9282 14.5322 19.5336 14.6369C19.1511 14.7398 18.7151 14.7917 18.2369 14.7917H17.9288C17.7086 14.7917 17.4946 14.8737 17.3266 15.0207C17.1581 15.1708 17.0467 15.3758 17.0126 15.6L16.9893 15.7305L16.5993 18.2848L16.5816 18.3785C16.5769 18.4082 16.5689 18.423 16.557 18.433C16.5465 18.4422 16.5314 18.4483 16.5166 18.4483H14.6143Z" fill="#28356A"/>
<path fill-rule="evenodd" clip-rule="evenodd" d="M21.2757 9.0752C21.264 9.15328 21.2504 9.23307 21.2353 9.31506C20.7132 12.0857 18.9269 13.0429 16.6457 13.0429H15.4841C15.2051 13.0429 14.97 13.2522 14.9266 13.5366L14.1634 18.5399C14.1352 18.7267 14.2745 18.895 14.4568 18.895H16.5169C16.7608 18.895 16.9681 18.7118 17.0065 18.4632L17.0267 18.355L17.4146 15.8108L17.4396 15.6713C17.4775 15.4217 17.6852 15.2384 17.9291 15.2384H18.2372C20.2332 15.2384 21.7958 14.4009 22.2525 11.9771C22.4432 10.9646 22.3445 10.1191 21.8396 9.52451C21.6869 9.34525 21.4974 9.19641 21.2757 9.0752Z" fill="#298FC2"/>
<path fill-rule="evenodd" clip-rule="evenodd" d="M20.7293 8.84993C20.6495 8.82586 20.5672 8.80411 20.4828 8.78443C20.3979 8.76525 20.311 8.74826 20.2215 8.73335C19.9084 8.68106 19.5652 8.65625 19.1976 8.65625H16.0946C16.0181 8.65625 15.9455 8.67409 15.8806 8.70635C15.7374 8.77747 15.6311 8.9175 15.6054 9.08894L14.9452 13.4105L14.9263 13.5365C14.9697 13.252 15.2048 13.0427 15.4838 13.0427H16.6454C18.9266 13.0427 20.7129 12.085 21.235 9.31488C21.2506 9.23289 21.2637 9.15309 21.2754 9.07501C21.1433 9.00255 21.0003 8.9406 20.8462 8.88781C20.8082 8.87473 20.7689 8.86215 20.7293 8.84993Z" fill="#22284F"/>
<path fill-rule="evenodd" clip-rule="evenodd" d="M15.6055 9.08911C15.6313 8.91767 15.7376 8.77764 15.8807 8.70701C15.9461 8.67463 16.0182 8.65679 16.0947 8.65679H19.1978C19.5653 8.65679 19.9085 8.68171 20.2217 8.73401C20.3112 8.7488 20.3981 8.76591 20.483 8.78509C20.5674 8.80464 20.6497 8.82651 20.7295 8.85046C20.7691 8.86268 20.8083 8.87539 20.8468 8.88798C21.0008 8.94077 21.144 9.00321 21.276 9.07518C21.4314 8.05131 21.2747 7.35419 20.7392 6.72293C20.1486 6.02789 19.083 5.73047 17.7192 5.73047H13.7601C13.4816 5.73047 13.244 5.93979 13.2009 6.22475L11.5519 17.0283C11.5194 17.2421 11.6789 17.4349 11.8875 17.4349H14.3316L15.6055 9.08911Z" fill="#28356A"/>
</svg>
