<svg width="18" height="18" viewBox="0 0 18 18" fill="none" xmlns="http://www.w3.org/2000/svg">
<path d="M8.74219 5.09961V15.299" stroke="#10B981" stroke-width="1.45705" stroke-linecap="round" stroke-linejoin="round"/>
<path d="M2.18556 13.1134C1.99234 13.1134 1.80704 13.0367 1.67041 12.9C1.53379 12.7634 1.45703 12.5781 1.45703 12.3849V2.91407C1.45703 2.72085 1.53379 2.53555 1.67041 2.39893C1.80704 2.2623 1.99234 2.18555 2.18556 2.18555H5.82818C6.60105 2.18555 7.34226 2.49257 7.88876 3.03907C8.43526 3.58557 8.74228 4.32678 8.74228 5.09965C8.74228 4.32678 9.0493 3.58557 9.5958 3.03907C10.1423 2.49257 10.8835 2.18555 11.6564 2.18555H15.299C15.4922 2.18555 15.6775 2.2623 15.8142 2.39893C15.9508 2.53555 16.0275 2.72085 16.0275 2.91407V12.3849C16.0275 12.5781 15.9508 12.7634 15.8142 12.9C15.6775 13.0367 15.4922 13.1134 15.299 13.1134H10.9279C10.3482 13.1134 9.7923 13.3437 9.38242 13.7536C8.97255 14.1634 8.74228 14.7193 8.74228 15.299C8.74228 14.7193 8.51202 14.1634 8.10214 13.7536C7.69227 13.3437 7.13636 13.1134 6.55671 13.1134H2.18556Z" stroke="#10B981" stroke-width="1.45705" stroke-linecap="round" stroke-linejoin="round"/>
</svg>
