<svg width="67" height="60" viewBox="0 0 67 60" fill="none" xmlns="http://www.w3.org/2000/svg">
<path d="M0 54.7282C0 54.1489 0 53.5872 0 53.0079C0.401302 52.0775 0.715365 51.0769 1.22135 50.1992C7.39792 39.3859 13.6094 28.5725 19.8208 17.7592C22.6125 12.8967 25.3867 8.03422 28.1958 3.18928C29.5917 0.766808 31.8948 -0.356656 34.5818 0.0997514C36.5185 0.43328 37.8794 1.55674 38.8565 3.25949C44.3003 12.7738 49.7615 22.2706 55.2227 31.785C58.8169 38.0518 62.4112 44.3186 66.0055 50.5679C66.7557 51.8669 67.1745 53.2185 66.9302 54.7106C66.4242 57.923 63.9815 59.9769 60.6664 59.9769C43.2883 59.9769 25.9102 59.9769 8.53203 59.9769C7.65964 59.9769 6.78724 59.9944 5.91484 59.9769C3.3151 59.9067 1.09922 58.2566 0.296615 55.799C0.191927 55.4479 0.104688 55.0793 0 54.7282ZM31.668 40.5971C33.0638 40.5971 34.3724 40.5971 35.6984 40.5971C35.7159 40.4391 35.7159 40.3338 35.7333 40.2285C35.9427 36.4017 36.1521 32.5749 36.344 28.7305C36.5359 24.9739 36.7453 21.1998 36.9023 17.4257C36.9721 15.7054 35.6286 14.2659 33.8664 14.0728C32.1914 13.8797 30.4815 15.0208 30.1674 16.6357C30.0453 17.2677 30.1151 17.9523 30.15 18.6018C30.4292 22.8148 30.7258 27.0453 31.0224 31.2583C31.2318 34.3479 31.4411 37.4549 31.668 40.5971ZM33.4826 50.1641C35.0005 50.1641 36.2393 48.9529 36.2393 47.4257C36.2568 45.8809 35.0005 44.617 33.4651 44.6346C31.9471 44.6521 30.7432 45.8985 30.7432 47.4081C30.7607 48.9529 31.9646 50.1641 33.4826 50.1641Z" fill="#E0A02F"/>
</svg>
