<svg width="18" height="18" viewBox="0 0 18 18" fill="none" xmlns="http://www.w3.org/2000/svg">
<g clip-path="url(#clip0_1_6295)">
<path d="M11.2757 9.39062L12.3794 15.602C12.3917 15.6752 12.3815 15.7503 12.35 15.8175C12.3184 15.8846 12.2672 15.9406 12.203 15.9778C12.1389 16.015 12.0649 16.0318 11.9909 16.0258C11.917 16.0199 11.8466 15.9915 11.7893 15.9444L9.18116 13.9869C9.05525 13.8928 8.9023 13.842 8.74513 13.842C8.58797 13.842 8.43502 13.8928 8.30911 13.9869L5.69662 15.9437C5.6393 15.9906 5.56903 16.019 5.49518 16.025C5.42133 16.0309 5.34742 16.0142 5.2833 15.9771C5.21918 15.94 5.16791 15.8842 5.13633 15.8172C5.10474 15.7502 5.09434 15.6751 5.10652 15.602L6.2095 9.39062" stroke="#00A63E" stroke-width="1.45705" stroke-linecap="round" stroke-linejoin="round"/>
<path d="M8.74224 10.1993C11.1564 10.1993 13.1134 8.2423 13.1134 5.82818C13.1134 3.41406 11.1564 1.45703 8.74224 1.45703C6.32812 1.45703 4.37109 3.41406 4.37109 5.82818C4.37109 8.2423 6.32812 10.1993 8.74224 10.1993Z" stroke="#00A63E" stroke-width="1.45705" stroke-linecap="round" stroke-linejoin="round"/>
</g>
<defs>
<clipPath id="clip0_1_6295">
<rect width="17.4846" height="17.4846" fill="white"/>
</clipPath>
</defs>
</svg>
