<svg width="18" height="18" viewBox="0 0 18 18" fill="none" xmlns="http://www.w3.org/2000/svg">
<g clip-path="url(#clip0_1_6314)">
<path d="M11.6564 7.28516C11.6564 8.05802 11.3494 8.79924 10.8029 9.34574C10.2564 9.89224 9.51521 10.1993 8.74235 10.1993C7.96948 10.1993 7.22827 9.89224 6.68177 9.34574C6.13527 8.79924 5.82825 8.05802 5.82825 7.28516" stroke="#00A63E" stroke-width="1.45705" stroke-linecap="round" stroke-linejoin="round"/>
<path d="M2.26062 4.396H15.224" stroke="#00A63E" stroke-width="1.45705" stroke-linecap="round" stroke-linejoin="round"/>
<path d="M2.47696 3.98283C2.2878 4.23504 2.18555 4.54179 2.18555 4.85706V14.5705C2.18555 14.9569 2.33906 15.3275 2.61231 15.6008C2.88556 15.874 3.25616 16.0275 3.6426 16.0275H13.8419C14.2284 16.0275 14.599 15.874 14.8722 15.6008C15.1455 15.3275 15.299 14.9569 15.299 14.5705V4.85706C15.299 4.54179 15.1967 4.23504 15.0076 3.98283L13.5505 2.03985C13.4148 1.85889 13.2388 1.71202 13.0365 1.61086C12.8342 1.5097 12.6111 1.45703 12.3849 1.45703H5.09965C4.87345 1.45703 4.65035 1.5097 4.44803 1.61086C4.24571 1.71202 4.06973 1.85889 3.93401 2.03985L2.47696 3.98283Z" stroke="#00A63E" stroke-width="1.45705" stroke-linecap="round" stroke-linejoin="round"/>
</g>
<defs>
<clipPath id="clip0_1_6314">
<rect width="17.4846" height="17.4846" fill="white"/>
</clipPath>
</defs>
</svg>
