<svg width="55" height="55" viewBox="0 0 55 55" fill="none" xmlns="http://www.w3.org/2000/svg">
<circle cx="27.5" cy="27.5" r="27" fill="#ECEFF4" stroke="#7C7C7C"/>
<g opacity="0.66">
<circle cx="24.2172" cy="32.0678" r="6.0053" stroke="black" stroke-width="1.89641"/>
<mask id="path-3-inside-1_1_4963" fill="white">
<path d="M32.8302 31.0473C33.9795 30.6462 35.0034 29.9503 35.7995 29.0294C36.5956 28.1084 37.136 26.9946 37.3666 25.7993C37.5972 24.604 37.5099 23.3691 37.1136 22.2181C36.7172 21.0671 36.0257 20.0403 35.108 19.2404C34.1904 18.4405 33.0788 17.8956 31.8845 17.66C30.6901 17.4245 29.4549 17.5066 28.3022 17.8982C27.1496 18.2897 26.12 18.9771 25.3163 19.8914C24.5126 20.8057 23.963 21.915 23.7225 23.1084L25.7461 23.5162C25.9152 22.6771 26.3016 21.8971 26.8667 21.2542C27.4318 20.6113 28.1558 20.1281 28.9663 19.8527C29.7767 19.5774 30.6452 19.5197 31.485 19.6853C32.3248 19.8509 33.1064 20.2341 33.7516 20.7965C34.3968 21.359 34.8831 22.0809 35.1618 22.8902C35.4405 23.6995 35.5018 24.5678 35.3397 25.4083C35.1775 26.2487 34.7976 27.0319 34.2378 27.6794C33.6781 28.327 32.9581 28.8162 32.15 29.0983L32.8302 31.0473Z"/>
</mask>
<path d="M32.8302 31.0473C33.9795 30.6462 35.0034 29.9503 35.7995 29.0294C36.5956 28.1084 37.136 26.9946 37.3666 25.7993C37.5972 24.604 37.5099 23.3691 37.1136 22.2181C36.7172 21.0671 36.0257 20.0403 35.108 19.2404C34.1904 18.4405 33.0788 17.8956 31.8845 17.66C30.6901 17.4245 29.4549 17.5066 28.3022 17.8982C27.1496 18.2897 26.12 18.9771 25.3163 19.8914C24.5126 20.8057 23.963 21.915 23.7225 23.1084L25.7461 23.5162C25.9152 22.6771 26.3016 21.8971 26.8667 21.2542C27.4318 20.6113 28.1558 20.1281 28.9663 19.8527C29.7767 19.5774 30.6452 19.5197 31.485 19.6853C32.3248 19.8509 33.1064 20.2341 33.7516 20.7965C34.3968 21.359 34.8831 22.0809 35.1618 22.8902C35.4405 23.6995 35.5018 24.5678 35.3397 25.4083C35.1775 26.2487 34.7976 27.0319 34.2378 27.6794C33.6781 28.327 32.9581 28.8162 32.15 29.0983L32.8302 31.0473Z" stroke="black" stroke-width="3.79282" mask="url(#path-3-inside-1_1_4963)"/>
<path d="M38.7562 31.4355C39.3883 33.332 39.0091 38.1362 34.9634 37.1248" stroke="black" stroke-width="2.08605"/>
<path d="M18.1442 25.8112C16.9242 24.2276 15.7045 19.5653 19.858 19.1918" stroke="black" stroke-width="2.08605"/>
<path d="M31.5667 36.472L36.6246 33.7L35.9391 40.2335L31.5667 36.472Z" fill="black"/>
<path d="M23.2801 18.6928L19.4133 22.9723L17.9149 16.5761L23.2801 18.6928Z" fill="black"/>
</g>
</svg>
