<svg width="21" height="21" viewBox="0 0 21 21" fill="none" xmlns="http://www.w3.org/2000/svg">
<path d="M6.99522 12.2409C9.89262 12.2409 12.2414 9.89213 12.2414 6.99474C12.2414 4.09734 9.89262 1.74854 6.99522 1.74854C4.09783 1.74854 1.74902 4.09734 1.74902 6.99474C1.74902 9.89213 4.09783 12.2409 6.99522 12.2409Z" stroke="#00A63E" stroke-width="1.74873" stroke-linecap="round" stroke-linejoin="round"/>
<path d="M15.8172 9.06738C16.6438 9.37553 17.3793 9.88713 17.9557 10.5549C18.5322 11.2226 18.9309 12.0249 19.1151 12.8876C19.2993 13.7502 19.263 14.6454 19.0096 15.4903C18.7562 16.3353 18.2937 17.1027 17.6651 17.7215C17.0365 18.3404 16.262 18.7908 15.4133 19.031C14.5645 19.2712 13.6688 19.2935 12.8091 19.0959C11.9494 18.8983 11.1535 18.487 10.4948 17.9002C9.83617 17.3134 9.33611 16.5701 9.04089 15.7388" stroke="#00A63E" stroke-width="1.74873" stroke-linecap="round" stroke-linejoin="round"/>
<path d="M6.12012 5.24609H6.99448V8.74356" stroke="#00A63E" stroke-width="1.74873" stroke-linecap="round" stroke-linejoin="round"/>
<path d="M14.6106 12.1362L15.2227 12.757L12.757 15.2227" stroke="#00A63E" stroke-width="1.74873" stroke-linecap="round" stroke-linejoin="round"/>
</svg>
