<svg width="26" height="26" viewBox="0 0 26 26" fill="none" xmlns="http://www.w3.org/2000/svg">
<path d="M10.833 15.8818V17.6433C10.8289 18.0145 10.7295 18.3784 10.5444 18.7001C10.3592 19.0219 10.0945 19.2906 9.77567 19.4807C9.09874 19.9821 8.54808 20.6344 8.16745 21.3859C7.78682 22.1374 7.5867 22.9673 7.58301 23.8097" stroke="#0A0A0A" stroke-width="1.45705" stroke-linecap="round" stroke-linejoin="round"/>
<path d="M15.167 15.8818V17.6433C15.1711 18.0145 15.2705 18.3784 15.4556 18.7001C15.6408 19.0219 15.9055 19.2906 16.2243 19.4807C16.9013 19.9821 17.4519 20.6344 17.8325 21.3859C18.2132 22.1374 18.4133 22.9673 18.417 23.8097" stroke="#0A0A0A" stroke-width="1.45705" stroke-linecap="round" stroke-linejoin="round"/>
<path d="M19.5 9.75016H21.125C21.8433 9.75016 22.5322 9.46482 23.0401 8.95691C23.548 8.449 23.8333 7.76012 23.8333 7.04183C23.8333 6.32353 23.548 5.63466 23.0401 5.12675C22.5322 4.61884 21.8433 4.3335 21.125 4.3335H19.5" stroke="#0A0A0A" stroke-width="1.45705" stroke-linecap="round" stroke-linejoin="round"/>
<path d="M4.33301 23.8335H21.6663" stroke="#0A0A0A" stroke-width="1.45705" stroke-linecap="round" stroke-linejoin="round"/>
<path d="M6.5 9.74984C6.5 11.4737 7.18482 13.127 8.40381 14.346C9.62279 15.565 11.2761 16.2498 13 16.2498C14.7239 16.2498 16.3772 15.565 17.5962 14.346C18.8152 13.127 19.5 11.4737 19.5 9.74984V3.24984C19.5 2.96252 19.3859 2.68697 19.1827 2.4838C18.9795 2.28064 18.704 2.1665 18.4167 2.1665H7.58333C7.29602 2.1665 7.02047 2.28064 6.8173 2.4838C6.61414 2.68697 6.5 2.96252 6.5 3.24984V9.74984Z" stroke="#0A0A0A" stroke-width="1.45705" stroke-linecap="round" stroke-linejoin="round"/>
<path d="M6.50033 9.75016H4.87533C4.15703 9.75016 3.46816 9.46482 2.96024 8.95691C2.45233 8.449 2.16699 7.76012 2.16699 7.04183C2.16699 6.32353 2.45233 5.63466 2.96024 5.12675C3.46816 4.61884 4.15703 4.3335 4.87533 4.3335H6.50033" stroke="#0A0A0A" stroke-width="1.45705" stroke-linecap="round" stroke-linejoin="round"/>
</svg>
